<?xml version="1.0" standalone="no"?> <!DOCTYPE svg PUBLIC "-//W3C//DTD SVG 1.0//EN" "http://www.w3.org/TR/2001/REC-SVG-20010904/DTD/svg10.dtd" > <svg xmlns="http://www.w3.org/2000/svg" width="100%" height="100%">
<defs >
<font id="leaguegothiccondensedregular" horiz-adv-x="477" ><font-face
    font-family="League Gothic Condensed"
    units-per-em="2048"
    panose-1="0 0 5 6 0 0 0 0 0 0"
    ascent="1915"
    descent="-543"
    alphabetic="0" />
<missing-glyph horiz-adv-x="188" />
<glyph unicode=" " glyph-name="space" horiz-adv-x="221" />
<glyph unicode="!" glyph-name="exclam" horiz-adv-x="292" d="M59 406L27 1505H207L174 406H59ZM33 0V227H199V0H33Z" />
<glyph unicode="&quot;" glyph-name="quotedbl" horiz-adv-x="417" d="M168 954H39L20 1505H186L168 954ZM375 954H246L227 1505H393L375 954Z" />
<glyph unicode="#" glyph-name="numbersign" horiz-adv-x="800" d="M10 438L27 633H145Q147 667 156 762L168 891H51L66 1085H184Q187 1130 201 1294L219 1505H373L340 1085H459Q464 1168 475 1294L494 1505H647L612 1085H729L713 891H598L586 762Q579 683 575
633H690L674 438H559L541 219Q526 30 524 0H369L403 438H285L266 219Q254 69 250 0H94L131 438H10ZM324 891L301 633H420Q423 689 430 762L442 891H324Z" />
<glyph unicode="$" glyph-name="dollar" horiz-adv-x="479" d="M180 1628H266V1503Q342 1493 387 1407Q423 1333 430 1221L297 1196Q292 1255 277 1288T231 1321Q205 1321 186 1270Q172 1216 172 1159Q172 1085 213 987Q238 924 293 821Q322 766 342 723Q403 602
426 498Q438 436 438 371Q438 219 401 129Q354 16 266 2V-215H180V6Q92 30 49 131Q6 226 6 358L139 371Q142 292 164 242Q187 184 229 184Q263 184 281 242Q295 287 295 369Q295 448 254 543Q232 594 215 627Q175 700 125 803Q64 934 43 1030Q29 1102 29 1155Q29
1274 61 1366Q99 1471 180 1497V1628Z" />
<glyph unicode="%" glyph-name="percent" horiz-adv-x="837" d="M348 1348V911Q345 834 306 785T197 735Q123 735 83 786T43 911V1348Q43 1423 85 1472T197 1522Q271 1522 307 1473T348 1348ZM295 0H158L588 1505H719L295 0ZM225 911V1348Q225 1403 197 1403Q166
1403 166 1348V911Q161 856 197 856Q208 856 214 860T222 876T224 892T225 911ZM831 594V158Q828 82 788 33T680 -16Q607 -16 567 35T526 158V594Q526 669 568 719T680 770Q752 770 789 719T831 594ZM709 158V594Q709 649 680 649Q649 649 649 594V158Q647 135
654 118T680 100Q709 100 709 158Z" />
<glyph unicode="&amp;" glyph-name="ampersand" horiz-adv-x="573" d="M391 674L526 649Q525 629 523 608T519 569T512 527T504 489T494 447T484 410T471 370T460 334T447 294T434 258Q440 245 461 227T506 197V-16Q463 -4 437 14T402 44T373 92Q352 37 309 11T211
-16Q161 -16 122 5T59 60T20 136T-2 217T-8 291Q-8 357 13 446T52 587T104 728Q110 744 113 752Q49 983 49 1194Q54 1522 229 1522Q274 1522 308 1498T360 1440T389 1359T403 1276T406 1200Q406 1130 388 1052T351 921T297 788Q289 769 285 760Q349 514 358 489Q371
523 381 580T391 674ZM262 1200Q264 1255 255 1300T225 1346Q206 1346 197 1300T188 1200Q188 1161 196 1090T217 975Q262 1102 262 1200ZM299 260Q245 378 199 541Q195 522 186 478T174 420T166 378T160 332T158 293Q158 242 174 202T219 162Q232 162 242 165T269
192T299 260Z" />
<glyph unicode="&apos;" glyph-name="quotesingle" horiz-adv-x="247" d="M164 954H35L16 1505H182L164 954Z" />
<glyph unicode="(" glyph-name="parenleft" horiz-adv-x="397" d="M203 1610L328 1501Q244 1296 201 995Q176 842 176 645Q176 316 254 25Q283 -97 328 -209L205 -315Q103 -58 47 283Q20 448 20 645Q20 976 109 1309Q150 1466 203 1610Z" />
<glyph unicode=")" glyph-name="parenright" horiz-adv-x="397" d="M8 1501L133 1610Q235 1339 289 1010Q315 847 315 645Q315 318 227 -18Q195 -144 131 -315L8 -209Q78 -43 137 297Q162 467 162 645Q162 946 84 1266Q38 1431 8 1501Z" />
<glyph unicode="*" glyph-name="asterisk" horiz-adv-x="468" d="M150 1350L139 1505H268L258 1348L354 1397L385 1255L276 1217L365 1083L266 983L203 1108L141 983L41 1083L137 1217L23 1255L51 1397L150 1350Z" />
<glyph unicode="+" glyph-name="plus" horiz-adv-x="698" d="M27 649V821H248V1167H389V821H610V649H389V303H248V649H27Z" />
<glyph unicode="," glyph-name="comma" horiz-adv-x="247" d="M174 227V0L106 -266H8L59 0H8V227H174Z" />
<glyph unicode="-" glyph-name="hyphen" horiz-adv-x="327" d="M27 455V649H242V455H27Z" />
<glyph unicode="." glyph-name="period" horiz-adv-x="253" d="M14 0V227H180V0H14Z" />
<glyph unicode="/" glyph-name="slash" horiz-adv-x="493" d="M-14 -147L311 1505H446L125 -147H-14Z" />
<glyph unicode="0" glyph-name="zero" horiz-adv-x="495" d="M430 1217V289Q430 227 420 175T387 79T323 9T225 -16Q168 -16 126 11T62 83T29 180T18 289V1217Q18 1278 29 1330T63 1427T128 1496T225 1522Q283 1522 325 1493T389 1415T420 1317T430 1217ZM260
289V1217Q260 1307 227 1307Q211 1307 202 1281T193 1217V289Q193 248 203 224T227 199Q242 199 251 225T260 289Z" />
<glyph unicode="1" glyph-name="one" horiz-adv-x="346" d="M84 1180H-4V1317Q58 1340 111 1427Q127 1460 137 1505H254V0H84V1180Z" />
<glyph unicode="2" glyph-name="two" horiz-adv-x="499" d="M188 1028H18V1133Q19 1177 21 1214T31 1299T52 1384T88 1453T144 1504T223 1522Q262 1522 294 1508T346 1471T381 1415T404 1350T416 1278T421 1210T422 1147Q422 964 356 710T201 219H412V0H14V219Q56
331 66 358T113 485T160 623T196 746T229 882T247 1002T258 1133Q258 1191 250 1254T223 1317Q212 1317 204 1293T193 1233T189 1173T188 1133V1028Z" />
<glyph unicode="3" glyph-name="three" horiz-adv-x="473" d="M14 434H180Q180 178 217 178Q252 178 252 383Q249 557 226 616T131 680V862Q159 864 179 873T211 903T230 940T240 992T243 1045T244 1105Q244 1116 244 1122Q244 1321 213 1321Q176 1321 176 1071H8Q8
1522 211 1522Q258 1522 295 1498T354 1438T390 1355T409 1266T414 1186Q414 1020 392 930T311 768Q418 696 418 385Q418 301 411 238T383 113T321 18T217 -16Q181 -16 151 -3T101 37T65 93T40 163T26 236T18 311T15 378T14 434Z" />
<glyph unicode="4" glyph-name="four" horiz-adv-x="479" d="M233 0V328H2V522L213 1505H379V522H440V328H379V0H233ZM238 522V987L145 522H238Z" />
<glyph unicode="5" glyph-name="five" horiz-adv-x="483" d="M262 336V713Q262 760 252 791T225 823Q204 823 193 782T182 713H35V1505H391V1286H186V965Q189 984 219 1004T274 1024Q309 1024 336 1010T379 968T405 911T420 842T426 775T428 713V356Q423 -16 217
-16Q182 -16 154 -4T106 31T72 83T50 146T36 216T29 287T27 354T27 413Q27 430 27 438H195V338Q195 275 203 226T225 176Q262 176 262 336Z" />
<glyph unicode="6" glyph-name="six" horiz-adv-x="481" d="M430 657V289Q429 235 417 184T381 87T314 12T213 -16Q166 -16 130 6T74 60T41 135T24 215T20 289V1178Q27 1522 223 1522Q266 1522 300 1506T355 1460T390 1397T412 1321T421 1247T424 1178V1071H260Q260
1329 223 1329Q190 1329 190 1178V899Q194 909 217 921T262 934Q300 934 329 922T376 886T405 837T422 776T428 716T430 657ZM190 700V264Q190 234 198 205T227 176Q249 176 257 204T266 264V694Q266 707 264 720T252 748T227 762Q213 762 205 750T194 728T190
700Z" />
<glyph unicode="7" glyph-name="seven" horiz-adv-x="415" d="M53 0L188 1286H-12V1505H360V1284L227 0H53Z" />
<glyph unicode="8" glyph-name="eight" horiz-adv-x="479" d="M424 1280V989Q424 918 405 874T344 795Q384 771 407 715T430 580V260Q430 210 419 163T385 75T322 9T229 -16Q176 -16 136 10T73 79T40 168T29 260V580Q29 709 115 795Q75 835 55 878T35 989V1280Q35
1377 85 1449T229 1522Q281 1522 320 1500T381 1442T413 1364T424 1280ZM264 1085V1249Q264 1333 229 1333Q212 1333 204 1309T195 1249V1085V946Q195 918 205 899T229 879T253 898T264 946V1085ZM264 410V594Q264 630 255 655T229 680T204 655T195 594V410V250Q195
222 205 202T229 182T253 202T264 250V410Z" />
<glyph unicode="9" glyph-name="nine" horiz-adv-x="481" d="M4 848V1217Q5 1271 17 1322T53 1419T120 1494T221 1522Q268 1522 304 1500T360 1446T393 1370T410 1290T414 1217V328Q409 -16 211 -16Q160 -16 122 8T63 68T30 154T14 244T10 328V434H174Q174 176
211 176Q244 176 244 328V606Q241 596 218 584T172 571Q134 571 105 583T58 619T29 668T12 729T6 789T4 848ZM244 805V1241Q244 1272 236 1300T207 1329Q185 1329 177 1301T168 1241V811Q168 799 170 785T182 757T207 743Q239 743 244 805Z" />
<glyph unicode=":" glyph-name="colon" horiz-adv-x="278" d="M27 893V1120H193V893H27ZM27 0V227H193V0H27Z" />
<glyph unicode=";" glyph-name="semicolon" horiz-adv-x="278" d="M27 893V1120H193V893H27ZM193 227V0L125 -266H27L78 0H27V227H193Z" />
<glyph unicode="&lt;" glyph-name="less" horiz-adv-x="696" d="M27 655V803L610 1311V1092L184 729L395 549L610 367V147L27 655Z" />
<glyph unicode="=" glyph-name="equal" horiz-adv-x="696" d="M27 864V1036H610V864H27ZM27 477V649H610V477H27Z" />
<glyph unicode="&gt;" glyph-name="greater" horiz-adv-x="696" d="M610 803V655L27 147V367L451 729L27 1092V1311L610 803Z" />
<glyph unicode="?" glyph-name="question" horiz-adv-x="313" d="M238 406H92V662Q92 763 133 932Q151 1003 197 1114Q207 1138 215 1165T231 1232T228 1296T186 1321Q154 1321 125 1266Q118 1251 112 1234T101 1198T94 1176L-29 1260Q-17 1326 37 1413Q101 1513
190 1513Q247 1513 287 1488T345 1421T371 1337T379 1247Q379 1149 319 1008Q300 958 293 942Q258 859 244 770Q238 735 238 662V406ZM84 0V227H250V0H84Z" />
<glyph unicode="@" glyph-name="at" horiz-adv-x="692" d="M633 1184V389H496L469 453Q461 424 430 400T365 375Q314 375 285 428T256 563V1040Q256 1225 385 1225Q422 1225 457 1196Q453 1246 432 1274Q405 1327 324 1327Q248 1327 219 1274Q190 1227 190 1184V311Q190
267 219 227Q252 172 324 172Q407 172 453 244L598 141Q552 65 488 21T324 -23Q166 -23 74 109Q16 197 16 311V1184Q16 1301 74 1395Q163 1528 324 1528Q483 1528 578 1395Q633 1305 633 1184ZM463 575V1024Q463 1039 455 1049T436 1059Q428 1059 421 1049T414
1024V575Q414 561 422 551T438 541Q463 541 463 575Z" />
<glyph unicode="A" glyph-name="A" horiz-adv-x="520" d="M160 0H-6L131 1505H330L465 0H299L276 307H182L160 0ZM262 541L229 1139L199 541H262Z" />
<glyph unicode="B" glyph-name="B" horiz-adv-x="507" d="M254 0H31V1505H180Q243 1505 284 1484T356 1417Q426 1311 426 1106Q426 978 410 911Q382 826 338 795Q360 775 372 760T398 716T422 647Q436 581 436 426Q436 340 427 253T403 129Q384 78 348 39T254
0ZM201 1286V885Q233 885 242 897Q264 929 264 1085Q264 1242 242 1274Q229 1286 201 1286ZM201 682V219Q233 219 242 229Q264 261 264 451Q264 558 260 607T242 672Q231 682 201 682Z" />
<glyph unicode="C" glyph-name="C" horiz-adv-x="487" d="M256 516H422V289Q422 226 412 174T380 78T316 9T219 -16Q162 -16 121 12T58 87T28 184T18 289V1217Q18 1271 28 1321T61 1418T123 1493T219 1522Q277 1522 319 1490T382 1408T412 1311T422 1217V989H256V1217Q256
1307 221 1307Q193 1307 193 1225V289Q193 199 221 199Q256 199 256 289V516Z" />
<glyph unicode="D" glyph-name="D" horiz-adv-x="518" d="M195 0H31V1505H172Q272 1505 320 1471T397 1350Q421 1270 428 1136T436 752Q436 562 435 471T427 278T406 133Q384 67 337 34T195 0ZM201 1284V221Q214 221 218 221T235 226T252 243T263 277T268 336V688Q268
760 268 852T269 990T269 1089T267 1175T262 1235Q261 1248 257 1257T250 1271T238 1279T227 1282T213 1283T201 1284Z" />
<glyph unicode="E" glyph-name="E" horiz-adv-x="438" d="M31 0V1505H371V1278H201V883H324V641H201V227H371V0H31Z" />
<glyph unicode="F" glyph-name="F" horiz-adv-x="432" d="M383 1505V1278H201V883H324V655H201V0H31V1505H383Z" />
<glyph unicode="G" glyph-name="G" horiz-adv-x="503" d="M424 965H254V1217Q254 1307 221 1307Q206 1307 198 1278T190 1217V270Q190 232 199 206T225 180Q266 180 266 270V563H229V750H424V0H336L317 55Q304 28 269 6T205 -16Q151 -16 112 15T54 97T27 195T18
289V1217Q18 1271 28 1322T61 1419T125 1494T221 1522Q268 1522 305 1502T363 1450T399 1376T419 1295T424 1217V965Z" />
<glyph unicode="H" glyph-name="H" horiz-adv-x="528" d="M266 0V655H201V0H31V1505H201V883H266V1505H436V0H266Z" />
<glyph unicode="I" glyph-name="I" horiz-adv-x="292" d="M31 0V1505H201V0H31Z" />
<glyph unicode="J" glyph-name="J" horiz-adv-x="315" d="M-8 -12V209Q16 204 32 213T55 241T65 277T68 313V1505H238V279Q238 133 182 54T-8 -12Z" />
<glyph unicode="K" glyph-name="K" horiz-adv-x="522" d="M31 1505H195V1073L305 1505H471L322 954L467 0H301L195 717V0H31V1505Z" />
<glyph unicode="L" glyph-name="L" horiz-adv-x="423" d="M31 0V1505H201V205H377V0H31Z" />
<glyph unicode="M" glyph-name="M" horiz-adv-x="655" d="M344 0H252L188 741V0H31V1505H219L297 795L375 1505H563V0H401V741L344 0Z" />
<glyph unicode="N" glyph-name="N" horiz-adv-x="546" d="M311 0L188 731V0H31V1505H174L297 795V1505H455V0H311Z" />
<glyph unicode="O" glyph-name="O" horiz-adv-x="495" d="M430 1217V289Q430 227 420 175T387 79T323 9T225 -16Q168 -16 126 11T62 83T29 180T18 289V1217Q18 1278 29 1330T63 1427T128 1496T225 1522Q283 1522 325 1493T389 1415T420 1317T430 1217ZM260 289V1217Q260
1307 227 1307Q211 1307 202 1281T193 1217V289Q193 248 203 224T227 199Q242 199 251 225T260 289Z" />
<glyph unicode="P" glyph-name="P" horiz-adv-x="493" d="M31 0V1505H203Q256 1505 292 1486T362 1415Q434 1302 434 1055Q434 801 362 688Q311 606 201 602V0H31ZM201 1284V827Q242 827 254 852Q270 885 270 1047Q270 1225 254 1262Q244 1284 201 1284Z" />
<glyph unicode="Q" glyph-name="Q" horiz-adv-x="499" d="M422 1217V289Q422 197 391 111Q391 110 391 109V106Q409 79 438 70V-115Q314 -115 272 -8H270Q258 -12 252 -12L227 -16H211Q209 -16 207 -15T203 -14Q149 -10 111 18T54 93T27 187T18 289V1217Q18 1279
28 1330T59 1427T121 1497T217 1522Q275 1522 317 1493T381 1415T412 1317T422 1217ZM248 289V1217Q248 1307 219 1307Q193 1307 193 1217V289Q193 199 219 199Q233 199 240 226T248 289Z" />
<glyph unicode="R" glyph-name="R" horiz-adv-x="505" d="M455 0H289L201 655V0H31V1505H203Q320 1505 374 1397T428 1071Q428 959 408 867T350 729L455 0ZM201 1286V829Q232 829 246 852Q266 882 266 1063Q266 1238 248 1266Q234 1286 201 1286Z" />
<glyph unicode="S" glyph-name="S" horiz-adv-x="483" d="M418 1124L250 1100Q250 1319 217 1319Q188 1319 188 1169Q188 1102 211 1026T289 815Q356 652 387 549T418 342Q418 302 415 266T405 186T382 109T346 46T291 0T215 -16Q171 -16 137 1T81 43T44 109T21
184T9 267T5 343T4 413Q4 418 4 420L170 444Q170 186 215 186Q237 186 243 219T250 332Q250 393 232 464T192 593T115 782Q23 1029 23 1169Q23 1214 27 1256T43 1348T75 1434T130 1496T213 1522Q254 1523 286 1508T340 1468T376 1406T399 1335T411 1258T417 1186T418
1124Z" />
<glyph unicode="T" glyph-name="T" horiz-adv-x="450" d="M109 1278H-16V1505H403V1278H279V0H109V1278Z" />
<glyph unicode="U" glyph-name="U" horiz-adv-x="512" d="M250 1505H420V289Q420 -16 219 -16Q16 -16 16 289V1505H186V289Q186 199 219 199Q250 199 250 289V1505Z" />
<glyph unicode="V" glyph-name="V" horiz-adv-x="491" d="M-8 1505H158L215 735L272 1505H438L299 0H131L-8 1505Z" />
<glyph unicode="W" glyph-name="W" horiz-adv-x="684" d="M369 0L311 721L254 0H111L-4 1505H156L199 799L248 1505H373L424 801Q430 911 444 1153T465 1505H625L514 0H369Z" />
<glyph unicode="X" glyph-name="X" horiz-adv-x="503" d="M285 0L221 416L158 0H-8L137 791Q132 816 105 948T66 1147L-6 1505H162L221 1141L281 1505H449L305 791Q315 743 331 651T352 532L451 0H285Z" />
<glyph unicode="Y" glyph-name="Y" horiz-adv-x="481" d="M164 1505L221 1067Q230 1136 250 1282T281 1505H449L307 641V0H137V641L-4 1505H164Z" />
<glyph unicode="Z" glyph-name="Z" horiz-adv-x="438" d="M-6 0V238L201 1286H23V1505H383V1286L170 219H383V0H-6Z" />
<glyph unicode="[" glyph-name="bracketleft" horiz-adv-x="385" d="M307 1505V1309H186V-16H307V-213H31V1505H307Z" />
<glyph unicode="\" glyph-name="backslash" horiz-adv-x="536" d="M121 1692L489 -180H352L-14 1692H121Z" />
<glyph unicode="]" glyph-name="bracketright" horiz-adv-x="385" d="M16 1309V1505H293V-213H16V-16H137V1309H16Z" />
<glyph unicode="^" glyph-name="asciicircum" horiz-adv-x="722" d="M242 1505H420L647 809H492L330 1296L170 809H14L242 1505Z" />
<glyph unicode="_" glyph-name="underscore" horiz-adv-x="724" d="M27 -326V-154H639V-326H27Z" />
<glyph unicode="`" glyph-name="grave" horiz-adv-x="675" d="M160 1489H324L387 1305H256L160 1489Z" />
<glyph unicode="a" glyph-name="a" horiz-adv-x="471" d="M231 743V864Q231 896 224 927T205 958Q191 958 184 926T176 864V791H20V858Q20 925 38 986T102 1092T211 1137Q270 1137 311 1094T369 995T383 883V195Q383 82 393 0H256Q251 8 242 33T231 68Q218 33
190 9T127 -16Q96 -16 73 7T38 60T20 133T12 203T10 260Q10 530 166 664Q222 710 231 743ZM229 254V514Q201 478 180 403T158 262Q158 178 186 178Q205 178 217 200T229 254Z" />
<glyph unicode="b" glyph-name="b" horiz-adv-x="473" d="M31 0V1505H193V1073Q197 1093 226 1115T276 1137Q313 1137 339 1117T378 1061T396 992T401 918V203Q401 197 401 167T400 124T396 84T387 44T372 15T346 -9T309 -16Q273 -16 238 11T193 61V0H31ZM193
883V256Q193 178 221 178Q250 178 250 256V883Q250 914 243 935T221 956T200 934T193 883Z" />
<glyph unicode="c" glyph-name="c" horiz-adv-x="448" d="M182 874V258Q182 224 190 197T213 170Q246 170 246 258V414H401V285Q400 238 398 207T390 138T371 75T337 28T284 -5T207 -16Q161 -16 126 5T72 59T40 135T24 217T20 295V825Q21 881 29 929T57 1028T116
1107T211 1137Q249 1137 279 1128T329 1104T363 1064T384 1016T395 959T400 899T401 836V727H246V874Q246 956 215 956Q202 956 192 931T182 874Z" />
<glyph unicode="d" glyph-name="d" horiz-adv-x="473" d="M414 1505V0H252V61Q243 39 207 12T135 -16Q119 -16 106 -12T83 2T67 22T56 49T50 78T46 111T44 142T44 174T43 203V918Q43 957 48 991T65 1061T104 1116T168 1137Q190 1137 219 1115T252 1073V1505H414ZM252
256V883Q252 911 245 933T223 956Q210 956 203 935T195 883V256Q195 178 223 178Q252 178 252 256Z" />
<glyph unicode="e" glyph-name="e" horiz-adv-x="456" d="M248 401H401V260Q401 202 391 155T359 68T297 6T199 -16Q148 -16 111 9T55 77T28 167T20 266V850Q20 922 37 984T99 1091T209 1137Q259 1137 295 1120T351 1076T382 1010T397 936T401 856V522H178V279Q178
237 185 202T209 166Q248 166 248 279V401ZM178 842V684H248V842Q248 956 207 956Q178 956 178 842Z" />
<glyph unicode="f" glyph-name="f" horiz-adv-x="346" d="M217 0H57V934H-6V1120H57V1186Q58 1229 59 1259T66 1331T82 1401T109 1457T153 1499T217 1513Q257 1513 293 1493V1323Q277 1333 261 1333T236 1325Q217 1305 217 1198V1120H281V934H217V0Z" />
<glyph unicode="g" glyph-name="g" horiz-adv-x="501" d="M391 879V541Q389 493 377 447T343 359T282 290T193 264H182Q170 244 170 215Q170 169 252 145Q340 122 375 82Q438 5 438 -115Q438 -238 382 -319T207 -401Q103 -401 47 -343T-10 -184Q-10 -92 96 -14H98Q10
27 10 135Q10 179 34 225T94 303Q16 422 16 547V852Q17 900 27 947T58 1039T116 1110T203 1137Q291 1137 330 1067Q390 1137 459 1137V952Q400 952 383 928Q391 912 391 879ZM233 537V854Q233 956 203 956Q176 956 176 854V537Q176 436 203 436Q233 436 233 537ZM231
-72L182 -55Q145 -98 145 -150Q145 -184 161 -205T209 -227Q242 -227 263 -205T285 -152Q285 -92 231 -72Z" />
<glyph unicode="h" glyph-name="h" horiz-adv-x="468" d="M193 883V0H31V1505H193V1073Q196 1093 225 1115T281 1137Q317 1137 342 1113T378 1052T394 982T399 918V0H246V883Q246 956 219 956Q193 956 193 883Z" />
<glyph unicode="i" glyph-name="i" horiz-adv-x="270" d="M31 1298V1505H193V1298H31ZM193 0H31V1120H193V0Z" />
<glyph unicode="j" glyph-name="j" horiz-adv-x="280" d="M27 1298V1505H188V1298H27ZM27 1120H188V-29Q188 -176 170 -250Q155 -308 119 -346T27 -385Q-10 -385 -45 -369L-41 -182Q-28 -186 -18 -186T-1 -184T11 -174T19 -160T24 -143T26 -123T27 -103T27 -84Q27
-77 27 -74V1120Z" />
<glyph unicode="k" glyph-name="k" horiz-adv-x="446" d="M31 1505H186V887L262 1120H418L281 735L414 0H258L186 475V0H31V1505Z" />
<glyph unicode="l" glyph-name="l" horiz-adv-x="280" d="M193 0H31V1505H193V0Z" />
<glyph unicode="m" glyph-name="m" horiz-adv-x="673" d="M399 883V0H252V887Q252 956 221 956Q208 956 201 935T193 883V0H31V1120H193V1061Q211 1093 242 1115T303 1137Q335 1137 356 1113T381 1055Q396 1088 434 1112T508 1137Q532 1137 550 1126T579 1094T597
1054T606 1004T609 959T610 918V0H461V883Q461 956 430 956Q415 956 407 931T399 883Z" />
<glyph unicode="n" glyph-name="n" horiz-adv-x="475" d="M193 883V0H31V1120H193V1063Q209 1088 242 1112T301 1137Q337 1137 361 1114T395 1051T408 982T412 918V0H252V885Q252 956 221 956Q193 956 193 883Z" />
<glyph unicode="o" glyph-name="o" horiz-adv-x="456" d="M399 848V272Q399 133 356 59T209 -16Q162 -16 127 1T72 47T40 115T24 194T20 279V842Q20 1137 213 1137Q261 1137 295 1122T349 1082T380 1018T395 940T399 848ZM246 258V862Q250 956 211 956Q174 956
174 862V258Q170 166 209 166Q230 166 239 201T246 258Z" />
<glyph unicode="p" glyph-name="p" horiz-adv-x="473" d="M31 -385V1120H193V1063Q205 1091 238 1114T299 1137Q412 1137 412 918V203Q407 -16 299 -16Q271 -16 240 8T193 66V-385H31ZM193 881V246Q193 178 223 178Q252 178 252 246V881Q252 956 223 956Q193 956
193 881Z" />
<glyph unicode="q" glyph-name="q" horiz-adv-x="473" d="M412 1120V-385H250V66Q234 32 203 8T143 -16Q36 -16 31 203V918Q31 1137 143 1137Q171 1137 204 1114T250 1063V1120H412ZM250 246V881Q250 956 219 956Q190 956 190 881V246Q190 178 219 178Q250 178 250 246Z" />
<glyph unicode="r" glyph-name="r" horiz-adv-x="364" d="M326 1137V891Q259 929 224 891T188 778V0H31V1120H188V1059Q234 1137 326 1137Z" />
<glyph unicode="s" glyph-name="s" horiz-adv-x="440" d="M381 834H242Q242 876 234 920T205 965Q176 965 176 848Q176 827 180 804T189 766T204 725T219 691T238 655T254 625Q289 566 311 523T355 404T377 254Q377 221 373 189T357 118T326 51T271 4T190 -16Q148
-16 116 -2T65 39T32 97T14 170T6 247T4 326H152Q152 261 161 209T190 156Q210 156 216 187T223 291Q223 301 222 313T219 334T213 358T206 381T196 406T187 430T175 456T164 480T151 507T139 532Q131 549 108 592T75 657T51 717T31 791T25 870Q25 986 69 1061T201
1137Q381 1137 381 834Z" />
<glyph unicode="t" glyph-name="t" horiz-adv-x="358" d="M72 1397H229V1120H315V934H229V0H72V934H4V1120H72V1397Z" />
<glyph unicode="u" glyph-name="u" horiz-adv-x="475" d="M242 238V1120H403V0H242V57Q224 32 191 8T133 -16Q23 -16 23 203V1120H182V236Q182 164 213 164Q242 164 242 238Z" />
<glyph unicode="v" glyph-name="v" horiz-adv-x="421" d="M270 0H111L-8 1120H143L190 463L240 1120H391L270 0Z" />
<glyph unicode="w" glyph-name="w" horiz-adv-x="604" d="M451 0H317L270 532L225 0H94L-6 1120H139L178 606L223 1120H322L365 606L403 1120H549L451 0Z" />
<glyph unicode="x" glyph-name="x" horiz-adv-x="444" d="M12 0L127 578L2 1120H154L205 840L260 1120H412L285 578L399 0H250L205 303Q198 264 183 142T164 0H12Z" />
<glyph unicode="y" glyph-name="y" horiz-adv-x="466" d="M23 -395V-213Q71 -232 94 -203Q131 -148 131 -33L-4 1120H154L213 459Q218 537 239 791T266 1120H426L287 -84Q276 -220 229 -301Q194 -367 138 -392T23 -395Z" />
<glyph unicode="z" glyph-name="z" horiz-adv-x="380" d="M-10 0V168L160 932H16V1120H328V952L158 188H328V0H-10Z" />
<glyph unicode="{" glyph-name="braceleft" horiz-adv-x="475" d="M397 1522V1350Q357 1349 330 1338T287 1312T264 1269T254 1217T252 1153V756Q252 681 222 615T150 535Q195 505 223 445T252 313V-84Q253 -129 256 -155T267 -208T290 -249T332 -272T397 -281V-453Q317
-453 262 -437T175 -393T125 -316T102 -215T96 -84V313Q96 352 82 391Q63 450 18 453V616Q64 616 82 676Q96 712 96 756V1153Q97 1234 104 1288T129 1391T181 1467T267 1509T397 1522Z" />
<glyph unicode="|" glyph-name="bar" horiz-adv-x="274" d="M182 -512H31V1692H182V-512Z" />
<glyph unicode="}" glyph-name="braceright" horiz-adv-x="475" d="M16 1350V1522Q93 1524 146 1509T232 1467T283 1391T309 1288T317 1153V756Q317 712 332 676Q350 616 395 616V453Q351 450 332 391Q317 353 317 313V-84Q317 -150 314 -194T300 -284T268 -358T215
-410T133 -443T16 -453V-281Q55 -281 81 -272T122 -250T146 -209T158 -155T162 -84V313Q162 384 190 444T264 535Q222 548 192 614T162 756V1153Q162 1193 160 1217T150 1269T127 1312T84 1338T16 1350Z" />
<glyph unicode="~" glyph-name="asciitilde" horiz-adv-x="829" d="M164 1276L49 1358Q78 1498 162 1612Q203 1659 268 1659Q348 1659 436 1567L446 1556Q511 1485 539 1485Q572 1485 606 1575Q617 1595 633 1661Q633 1664 635 1672T637 1683L754 1604Q718 1452
641 1348Q602 1300 539 1300Q502 1300 468 1316T415 1350T365 1401Q299 1475 268 1475Q235 1475 195 1384Q173 1327 164 1276Z" />
</font>
</defs>
</svg>
